<svg xmlns="http://www.w3.org/2000/svg" viewBox="0 0 184.04 172.1"><defs><style>.cls-1{fill:#141515;}</style></defs><g id="Layer_2" data-name="Layer 2"><g id="Icons"><path class="cls-1" d="M43.07,151.84H33.51l6.69-6.69a2.45,2.45,0,0,0-3.46-3.46l-6.69,6.68v-9.46a2.45,2.45,0,0,0-4.89,0v9.46l-6.69-6.68A2.45,2.45,0,0,0,15,145.15l6.69,6.69H12.24a2.45,2.45,0,1,0,0,4.89H21.7L15,163.42a2.45,2.45,0,1,0,3.46,3.46l6.69-6.69v9.46a2.45,2.45,0,1,0,4.89,0v-9.46l6.69,6.69a2.45,2.45,0,0,0,3.46-3.46l-6.69-6.69h9.56a2.45,2.45,0,1,0,0-4.89Z"/><path class="cls-1" d="M164.46,41.6a20,20,0,0,0-7.54,1.49c.07-.9.1-1.79.1-2.66A40.46,40.46,0,0,0,82.4,18.78a40,40,0,0,0-15-2.92A40.47,40.47,0,0,0,27,56.29c0,.86,0,1.74.1,2.66a19.88,19.88,0,0,0-7.54-1.49,19.63,19.63,0,0,0,0,39.26H148.11a14,14,0,0,0,13.9-14,14.28,14.28,0,0,0-.14-1.86h2.59a19.63,19.63,0,0,0,0-39.26ZM148.11,91.83H19.58a14.74,14.74,0,0,1,0-29.47,14.61,14.61,0,0,1,9.05,3.09,2.45,2.45,0,0,0,3.93-2.32,41.82,41.82,0,0,1-.65-6.84,35.53,35.53,0,0,1,68.6-13c.11.27.22.54.32.82s.14.43.22.64c.14.42.28.85.41,1.29,0,.14.09.29.13.44q.25.9.48,1.83a2.28,2.28,0,0,0,.15.44,1.17,1.17,0,0,0,0,.11,2.48,2.48,0,0,0,.26.4.47.47,0,0,0,.06.09,2.06,2.06,0,0,0,.31.28l.12.12a3,3,0,0,0,.43.24l.09,0h0a2.45,2.45,0,0,0,2.26-.22,22.95,22.95,0,0,1,35.46,19.1c0,1-.1,2-.19,3a2.45,2.45,0,0,0,1,2.2,2.41,2.41,0,0,0,1.17.45,2.38,2.38,0,0,0,1.23-.18,9.12,9.12,0,0,1,3.64-.69,8.12,8.12,0,0,1,1.21.1l.3,0a9.07,9.07,0,0,1,1.06.24l.15,0a8.28,8.28,0,0,1,1,.38l.41.19c.21.11.41.23.61.35s.52.34.76.53l.31.24c.2.17.39.34.57.52h0a9,9,0,0,1,2.64,6.36A9.07,9.07,0,0,1,148.11,91.83ZM164.46,76H160.3a14,14,0,0,0-8-6.49l-.18-.06a14.43,14.43,0,0,0-2.47-.51l-.3,0c-.42,0-.84-.06-1.27-.06a15.75,15.75,0,0,0-2,.12v0A27.86,27.86,0,0,0,106,44.08q-.26-.81-.54-1.59A40,40,0,0,0,86.88,20.84a35.57,35.57,0,0,1,65.24,19.59,33.06,33.06,0,0,1-.73,6.75,2.45,2.45,0,0,0,3.89,2.44,15.17,15.17,0,0,1,9.18-3.12,14.74,14.74,0,0,1,0,29.47Z"/><path class="cls-1" d="M12.87,134.67a2.49,2.49,0,0,0,1.22.33,2.46,2.46,0,0,0,2.13-1.23l15.36-26.62a2.45,2.45,0,1,0-4.24-2.45L12,131.33A2.44,2.44,0,0,0,12.87,134.67Z"/><path class="cls-1" d="M68.08,103.8a2.45,2.45,0,0,0-3.34.9L49.37,131.33a2.45,2.45,0,1,0,4.24,2.44L69,107.15A2.45,2.45,0,0,0,68.08,103.8Z"/><path class="cls-1" d="M143,103.81a2.45,2.45,0,0,0-3.35.88l-15.47,26.63a2.46,2.46,0,0,0,.89,3.35,2.5,2.5,0,0,0,1.23.33,2.47,2.47,0,0,0,2.12-1.22l15.46-26.63A2.43,2.43,0,0,0,143,103.81Z"/><path class="cls-1" d="M74,138.85a2.45,2.45,0,0,0-3.35.9L55.24,166.37a2.45,2.45,0,0,0,4.24,2.45l15.37-26.63A2.44,2.44,0,0,0,74,138.85Z"/><path class="cls-1" d="M111.35,138.85a2.44,2.44,0,0,0-3.34.9L92.64,166.37a2.45,2.45,0,0,0,.9,3.35,2.42,2.42,0,0,0,1.22.32,2.45,2.45,0,0,0,2.12-1.22l15.37-26.63A2.45,2.45,0,0,0,111.35,138.85Z"/><path class="cls-1" d="M112.28,116.79h-9.49l6.72-6.69a2.45,2.45,0,0,0-3.46-3.46l-6.69,6.66v-9.43a2.45,2.45,0,1,0-4.89,0v9.53l-6.79-6.76a2.45,2.45,0,1,0-3.46,3.46l6.72,6.69H81.45a2.45,2.45,0,1,0,0,4.89h9.49l-6.72,6.69A2.45,2.45,0,0,0,86,132.55a2.48,2.48,0,0,0,1.73-.71l6.79-6.76v9.53a2.45,2.45,0,0,0,4.89,0v-9.44l6.69,6.67a2.46,2.46,0,0,0,1.73.71,2.41,2.41,0,0,0,1.73-.72,2.45,2.45,0,0,0,0-3.46l-6.72-6.69h9.49a2.45,2.45,0,1,0,0-4.89Z"/></g></g></svg>