<svg xmlns="http://www.w3.org/2000/svg" viewBox="0 0 142.24 105.34"><defs><style>.cls-1{fill:#141515;}</style></defs><g id="Layer_2" data-name="Layer 2"><g id="Icons"><path class="cls-1" d="M127.46,63l-80.08-.1c-11,0-20.36,9.73-20.36,21.24A21.26,21.26,0,0,0,68.61,90.3a2.45,2.45,0,0,0-4.68-1.45,16.54,16.54,0,0,1-15.67,11.59A16.37,16.37,0,0,1,31.91,84.09c0-8.86,7.09-16.35,15.47-16.35l80.07.1h0a2.45,2.45,0,0,0,0-4.89Z"/><path class="cls-1" d="M123.25,56.49a2.45,2.45,0,0,0,0-4.9H27.12c-12,0-22.23-10.71-22.23-23.4a23.39,23.39,0,0,1,45.73-6.82,2.45,2.45,0,1,0,4.68-1.43A28.28,28.28,0,0,0,0,28.19c0,15.34,12.42,28.3,27.12,28.3Z"/><path class="cls-1" d="M139.79,40.72H75c-5.43,0-10.19-5.07-10.19-10.86A10.81,10.81,0,0,1,86,26.74a2.45,2.45,0,1,0,4.69-1.4,15.7,15.7,0,0,0-30.73,4.52c0,8.54,6.9,15.76,15.08,15.76h64.8a2.45,2.45,0,1,0,0-4.9Z"/></g></g></svg>