<svg xmlns="http://www.w3.org/2000/svg" viewBox="0 0 162.01 137.64"><defs><style>.cls-1{fill:#141515;}</style></defs><g id="Layer_2" data-name="Layer 2"><g id="Icons"><path class="cls-1" d="M148.11,53a15.75,15.75,0,0,0-2,.12v0A27.86,27.86,0,0,0,106,28.21,40.43,40.43,0,0,0,27,40.43c0,.87,0,1.76.1,2.66a20,20,0,0,0-7.54-1.49,19.63,19.63,0,0,0,0,39.26H148.11a14,14,0,0,0,0-27.9Zm0,23H19.58a14.74,14.74,0,0,1,0-29.47,15.17,15.17,0,0,1,9.18,3.12,2.44,2.44,0,0,0,3.88-2.44,33.78,33.78,0,0,1-.73-6.75,35.53,35.53,0,0,1,70.15-8A2.46,2.46,0,0,0,105.8,34a22.95,22.95,0,0,1,35.46,19.1c0,1-.11,2.2-.18,3a2.42,2.42,0,0,0,1,2.21,2.46,2.46,0,0,0,2.41.28,9.3,9.3,0,0,1,3.64-.68,8.91,8.91,0,0,1,9,9A9.07,9.07,0,0,1,148.11,76Z"/><path class="cls-1" d="M137.15,92.32H24.86a2.45,2.45,0,0,0,0,4.89H137.15a2.45,2.45,0,0,0,0-4.89Z"/><path class="cls-1" d="M137.15,112.48H24.86a2.45,2.45,0,0,0,0,4.9H137.15a2.45,2.45,0,0,0,0-4.9Z"/><path class="cls-1" d="M137.15,132.75H24.86a2.45,2.45,0,0,0,0,4.89H137.15a2.45,2.45,0,0,0,0-4.89Z"/></g></g></svg>