<svg xmlns="http://www.w3.org/2000/svg" viewBox="0 0 169.65 131.47"><defs><style>.cls-1{fill:#141515;}</style></defs><g id="Layer_2" data-name="Layer 2"><g id="Icons"><path class="cls-1" d="M129.3,40.68a2.45,2.45,0,0,0,.14,2.13l3.35,5.92,3.43,5.77A2.42,2.42,0,0,0,138,55.68l.33,0A2.46,2.46,0,0,0,140,55l10.17-9.78,10.28-9.79a2.45,2.45,0,0,0-2.38-4.12l-13.59,4-13.61,3.91A2.46,2.46,0,0,0,129.3,40.68ZM145.87,40l3.89-1.15L138.85,49.35,137,46.27l-1.8-3.17Z"/><path class="cls-1" d="M167.77,62.23l-27.5-6.65a2.44,2.44,0,0,0-3,2.37V71.37a2.44,2.44,0,0,0,.94,1.93,1.76,1.76,0,0,0,.37.23,2.82,2.82,0,0,0-.58,0,2.49,2.49,0,0,0-1.77,1.19l-3.15,5.42c-.36-.23-.72-.44-1.08-.64A30.77,30.77,0,0,0,105,33.77,31,31,0,0,0,77,51.73l-1.35-.3,4.92-8.62a2.45,2.45,0,0,0-1.45-3.56L65.5,35.34,52,31.33a2.45,2.45,0,0,0-2.39,4.11l10.19,9.8,5.69,5.42A40.43,40.43,0,0,0,27.12,91c0,.94,0,1.83.07,2.71a19.35,19.35,0,0,0-7.51-1.53,19.63,19.63,0,1,0,0,39.25H148.11a14,14,0,1,0,0-27.9,15.75,15.75,0,0,0-2,.12v0A27.52,27.52,0,0,0,144.39,94l.11,0,13.61,3.92a2.57,2.57,0,0,0,.67.09h0a2.45,2.45,0,0,0,1.47-4.39L150.2,84,140,74.2a2.51,2.51,0,0,0-.61-.41l.28,0a2.46,2.46,0,0,0,.6-.07L154,70.32,167.77,67a2.45,2.45,0,0,0,0-4.76ZM81.71,53.16A26,26,0,0,1,131,64.61a25.67,25.67,0,0,1-3.47,12.87l-.4-.12a27.64,27.64,0,0,0-8-1.38h-1.09l-1,0-.41,0a27.56,27.56,0,0,0-4.65.66l-.1,0c-.45.1-.89.22-1.32.34l-.33.1-1.08.35-.41.14-1,.4-.39.16c-.45.19-.89.39-1.33.61-.11-.36-.24-.7-.36-1s-.14-.42-.22-.62c-.14-.39-.29-.77-.44-1.15-.09-.23-.19-.47-.29-.7s-.31-.74-.48-1.11-.47-1-.72-1.5l-.37-.68q-.33-.63-.69-1.26l-.27-.45A40.27,40.27,0,0,0,86,55l-.09,0c-.54-.28-1.1-.54-1.66-.8l-.7-.3-1.05-.44ZM60.25,38.89l14.5,4.21-3.56,6.24-8-7.64Zm87.86,69.58a9.06,9.06,0,1,1,0,18.11H19.68a14.74,14.74,0,1,1,0-29.47,14.51,14.51,0,0,1,9,3.19,2.45,2.45,0,0,0,3.93-2.4A33.74,33.74,0,0,1,32,91,35.54,35.54,0,0,1,80.57,58l.9.38,1.15.5c.45.22.9.44,1.34.67l.5.26c.61.33,1.21.68,1.79,1l.14.08a35.82,35.82,0,0,1,7.08,5.83h0a35.56,35.56,0,0,1,2.82,3.42l.19.26c.39.55.76,1.1,1.11,1.66.11.18.22.35.32.53.24.39.47.78.69,1.18.13.23.26.46.38.7.26.48.5,1,.73,1.47.15.33.3.66.44,1s.22.51.32.77c.22.54.42,1.09.61,1.64.11.31.22.62.32.93s.19.62.28.94c.17.58.33,1.16.46,1.75l0,.09h0l.79,3.47,3-2c.42-.28.84-.54,1.28-.79l.35-.19c.34-.19.69-.37,1-.54l.33-.15c.4-.18.8-.35,1.22-.51l.16-.07a22.91,22.91,0,0,1,6.33-1.37h.25c.37,0,.75,0,1.13,0a24.17,24.17,0,0,1,7.86,1.23A22.6,22.6,0,0,1,132,85.34a3.59,3.59,0,0,0,.35.32,22.38,22.38,0,0,1,2.56,2.25,22.71,22.71,0,0,1,6.35,15.76c0,1.06-.09,2.06-.18,3a2.44,2.44,0,0,0,3.4,2.49A9.18,9.18,0,0,1,148.11,108.47Zm-1.29-20.94,3.05,2.9-4-1.14-4.65-1.41A24.57,24.57,0,0,0,137.92,84c-.3-.3-.61-.6-.93-.88l1.88-3.22Zm-4.68-19.3V61.07l14.62,3.54Z"/><path class="cls-1" d="M75.67,25.17l4,13.6a2.44,2.44,0,0,0,1.45,1.59,2.45,2.45,0,0,0,2.14-.17L89,36.78l5.87-3.32a2.43,2.43,0,0,0,1.21-1.78,2.15,2.15,0,0,0,0-.62,2.65,2.65,0,0,0,.24.4,2.44,2.44,0,0,0,1.93.94h13.43a2.45,2.45,0,0,0,2.34-1.74,2.41,2.41,0,0,0,1.12,2.79l11.64,6.75a2.46,2.46,0,0,0,3.59-1.44l3.91-13.59,4-13.61a2.45,2.45,0,0,0-4.12-2.38l-9.78,10.27-9.79,10.18a2.58,2.58,0,0,0-.54.88,2,2,0,0,0,.07-.55,2.33,2.33,0,0,0-.16-.88L107.42,1.87a2.45,2.45,0,0,0-4.76,0L99.34,15.66l-3.43,13.7a2.48,2.48,0,0,0,0,.9,2.39,2.39,0,0,0-.42-.63L85.67,19.46,75.88,9.18a2.45,2.45,0,0,0-4.13,2.36ZM128,22.83l2.8-2.94-4.2,14.49-6.23-3.61Zm-23.87-6,1-3.93,3.54,14.62h-7.16ZM89.73,30.75l-3.17,1.8-3.07,1.82L80.37,23.8l-1.15-4Z"/></g></g></svg>