<svg xmlns="http://www.w3.org/2000/svg" viewBox="0 0 184.14 170.04"><defs><style>.cls-1{fill:#141515;}</style></defs><g id="Layer_2" data-name="Layer 2"><g id="Icons"><path class="cls-1" d="M164.46,41.61a19.44,19.44,0,0,0-7.52,1.49c.05-.89.08-1.81.08-2.77A40.43,40.43,0,0,0,82.5,18.69a39.83,39.83,0,0,0-15-2.93A40.47,40.47,0,0,0,27.12,56.19c0,.93,0,1.82.07,2.69a19.12,19.12,0,0,0-7.51-1.51,19.63,19.63,0,1,0,0,39.25H148.11a14,14,0,0,0,14-13.9,14.25,14.25,0,0,0-.15-2h2.5a19.58,19.58,0,1,0,0-39.15ZM148.11,91.73H19.68a14.74,14.74,0,1,1,0-29.47,14.29,14.29,0,0,1,9,3.19,2.46,2.46,0,0,0,2.81.17A2.43,2.43,0,0,0,32.64,63,33.92,33.92,0,0,1,32,56.19,35.46,35.46,0,0,1,91.84,30.36l.09.08c.28.27.56.54.83.82s.51.53.76.8l.34.35a35.84,35.84,0,0,1,7.78,13.91v0c.19.65.36,1.3.51,2a2.34,2.34,0,0,0,.09.24,2.24,2.24,0,0,0,.11.31c0,.09.12.17.17.26s.1.16.16.23a2.13,2.13,0,0,0,.31.29.63.63,0,0,0,.12.11,2.63,2.63,0,0,0,.44.24l.07,0h0a2.45,2.45,0,0,0,2.26-.22A22.44,22.44,0,0,1,118.45,46a22.89,22.89,0,0,1,22.81,22.91,15.59,15.59,0,0,1-.16,2.79,2.44,2.44,0,0,0,.41,1.85A2.56,2.56,0,0,0,142,74a2.44,2.44,0,0,0,2.46.38,10.13,10.13,0,0,1,3.69-.8,9.39,9.39,0,0,1,1.19.08l.42.07q.34.06.69.15a8.32,8.32,0,0,1,1.22.41h0a9.18,9.18,0,0,1,4.39,3.93,10.4,10.4,0,0,1,.46,1,.17.17,0,0,0,0,0,9,9,0,0,1-8.42,12.46Zm16.35-15.86h-4.13a13.77,13.77,0,0,0-10.68-7.06l-.23,0c-.43,0-.87-.07-1.31-.07a12,12,0,0,0-2,.16,27.78,27.78,0,0,0-27.7-27.76c-.55,0-1.09,0-1.63,0l-.43,0-1.17.1-.21,0a27,27,0,0,0-8.93,2.73,40.12,40.12,0,0,0-7.24-13.35l-.17-.21-.83-1c-.17-.19-.33-.38-.5-.56l-.08-.09A40.78,40.78,0,0,0,87,20.76a35.54,35.54,0,0,1,65.14,19.57,33.22,33.22,0,0,1-.63,6.85,2.45,2.45,0,0,0,3.89,2.44,14.72,14.72,0,1,1,9.08,26.25Z"/><path class="cls-1" d="M30.79,103.71a2.44,2.44,0,0,0-3.34.89L12,131.32a2.45,2.45,0,0,0,.89,3.35,2.49,2.49,0,0,0,1.22.33,2.44,2.44,0,0,0,2.12-1.22l15.47-26.73A2.44,2.44,0,0,0,30.79,103.71Z"/><path class="cls-1" d="M68.18,103.7a2.45,2.45,0,0,0-3.34.9L49.47,131.33a2.45,2.45,0,1,0,4.24,2.44L69.08,107A2.45,2.45,0,0,0,68.18,103.7Z"/><path class="cls-1" d="M105.57,103.7a2.45,2.45,0,0,0-3.34.9L86.86,131.33a2.45,2.45,0,0,0,.9,3.34A2.49,2.49,0,0,0,89,135a2.46,2.46,0,0,0,2.13-1.23L106.47,107A2.43,2.43,0,0,0,105.57,103.7Z"/><path class="cls-1" d="M143,103.7a2.45,2.45,0,0,0-3.34.9l-15.37,26.73a2.45,2.45,0,1,0,4.24,2.44L143.87,107A2.45,2.45,0,0,0,143,103.7Z"/><path class="cls-1" d="M36.66,138.75a2.45,2.45,0,0,0-3.34.9L17.85,166.37a2.44,2.44,0,0,0,.89,3.34A2.39,2.39,0,0,0,20,170a2.44,2.44,0,0,0,2.12-1.22L37.56,142.1A2.46,2.46,0,0,0,36.66,138.75Z"/><path class="cls-1" d="M74.06,138.75a2.46,2.46,0,0,0-3.35.9L55.25,166.37a2.44,2.44,0,0,0,.89,3.34,2.38,2.38,0,0,0,1.22.33,2.42,2.42,0,0,0,2.12-1.22L75,142.1A2.45,2.45,0,0,0,74.06,138.75Z"/><path class="cls-1" d="M111.45,138.75a2.44,2.44,0,0,0-3.34.9L92.74,166.38A2.45,2.45,0,0,0,97,168.82l15.37-26.73A2.45,2.45,0,0,0,111.45,138.75Z"/></g></g></svg>