<svg xmlns="http://www.w3.org/2000/svg" viewBox="0 0 149.09 113.26"><defs><style>.cls-1{fill:#141515;}</style></defs><g id="Layer_2" data-name="Layer 2"><g id="Icons"><path class="cls-1" d="M39.65,36.71H27l9-9a2.45,2.45,0,1,0-3.46-3.46l-9,9V20.56a2.45,2.45,0,1,0-4.89,0V33.15L9.66,24.21A2.45,2.45,0,0,0,6.2,27.67l9,9H2.45a2.45,2.45,0,0,0,0,4.9H15.14L6.2,50.54A2.45,2.45,0,0,0,9.66,54l8.94-8.94V57.76a2.45,2.45,0,0,0,4.89,0V45l9,9A2.46,2.46,0,0,0,36,54a2.45,2.45,0,0,0,0-3.47l-8.94-8.93h12.6a2.45,2.45,0,0,0,0-4.9Z"/><path class="cls-1" d="M109.05,21.05a2.45,2.45,0,0,0-2.45-2.45H94l9-8.94A2.45,2.45,0,1,0,99.49,6.2l-9,9V2.45a2.45,2.45,0,1,0-4.89,0V15.11L76.62,6.2a2.45,2.45,0,1,0-3.46,3.46l9,8.94H69.41a2.45,2.45,0,1,0,0,4.89H82.13l-9,8.94a2.45,2.45,0,0,0,3.46,3.47L85.56,27V39.65a2.45,2.45,0,0,0,4.89,0V26.89l9,9A2.45,2.45,0,0,0,103,32.43l-9-8.94H106.6A2.44,2.44,0,0,0,109.05,21.05Z"/><path class="cls-1" d="M82.72,89.87H70l9-9a2.45,2.45,0,0,0-3.47-3.46l-8.93,9V73.71a2.45,2.45,0,0,0-4.9,0V86.34l-8.93-9a2.45,2.45,0,1,0-3.47,3.46l9,9H45.52a2.45,2.45,0,1,0,0,4.89H58.18l-8.91,8.94a2.45,2.45,0,0,0,3.47,3.46l8.93-9v12.63a2.45,2.45,0,0,0,4.9,0V98.19l8.93,9A2.45,2.45,0,1,0,79,103.7l-8.91-8.94H82.72a2.45,2.45,0,1,0,0-4.89Z"/><path class="cls-1" d="M146.64,66.08H134l8.91-8.94a2.45,2.45,0,1,0-3.46-3.46l-8.94,9V50a2.45,2.45,0,0,0-4.89,0V62.65l-8.94-9a2.45,2.45,0,1,0-3.47,3.46l8.91,8.94H109.44a2.45,2.45,0,0,0,0,4.89H122.2l-9,9a2.45,2.45,0,0,0,3.47,3.46l8.94-9V87.13a2.45,2.45,0,0,0,4.89,0V74.5l8.94,9a2.43,2.43,0,0,0,1.73.72A2.45,2.45,0,0,0,142.89,80l-9-9h12.75a2.45,2.45,0,1,0,0-4.89Z"/></g></g></svg>