<svg xmlns="http://www.w3.org/2000/svg" viewBox="0 0 162.11 148.51"><defs><style>.cls-1{fill:#141515;}</style></defs><g id="Layer_2" data-name="Layer 2"><g id="Icons"><path class="cls-1" d="M148.11,53a15.63,15.63,0,0,0-2,.12,27.79,27.79,0,0,0-27.7-27.73,27.23,27.23,0,0,0-12.38,2.94A40.4,40.4,0,0,0,27.12,40.43c0,.93,0,1.83.07,2.7a19.34,19.34,0,0,0-7.51-1.52,19.63,19.63,0,1,0,0,39.25H56.35l-4.79,20a2.44,2.44,0,0,0,3.11,2.9l19-6L60.39,145.4a2.45,2.45,0,0,0,1.39,2.91,2.55,2.55,0,0,0,1,.2,2.44,2.44,0,0,0,2.1-1.2l39.68-66.45h43.58a14,14,0,1,0,0-27.9ZM79.59,94.73a2.44,2.44,0,0,0-2.35-3.1,2.65,2.65,0,0,0-.74.11L57.33,97.79,67.91,53.65H92.16L82.62,76.39a2.46,2.46,0,0,0,.44,2.6,2.48,2.48,0,0,0,2.55.68l17.16-5.41L70,129.13ZM148.11,76H107.48l2.77-4.69,0,0h0a1.75,1.75,0,0,0,.12-.32,1.19,1.19,0,0,0,.18-.69,2.8,2.8,0,0,0,0-.4,2.57,2.57,0,0,0-.08-.38c0-.11,0-.22-.07-.33a2.31,2.31,0,0,0-.28-.48.83.83,0,0,0-.09-.16h0a2.61,2.61,0,0,0-.23-.24l0,0-.2-.16-.09-.07-.12-.06a2.43,2.43,0,0,0-2-.25L89.17,73.42l8.92-21.27a2.45,2.45,0,0,0-2.25-3.4H66a2.46,2.46,0,0,0-1.52.53s0,0,0,0a2.16,2.16,0,0,0-.27.25l-.09.12-.16.2a3,3,0,0,0-.16.31l0,0a2.67,2.67,0,0,0-.13.4l-.05.22L57.49,76H19.68a14.74,14.74,0,1,1,0-29.47,14.56,14.56,0,0,1,9,3.18,2.44,2.44,0,0,0,3.92-2.41A33.75,33.75,0,0,1,32,40.43a35.51,35.51,0,0,1,70.15-7.87,2.47,2.47,0,0,0,1.49,1.73,2.45,2.45,0,0,0,2.27-.25,22.29,22.29,0,0,1,12.53-3.79,22.89,22.89,0,0,1,22.81,22.91c0,1-.09,2-.19,3a2.45,2.45,0,0,0,3.54,2.41,7.74,7.74,0,0,1,3.5-.72,9.06,9.06,0,1,1,0,18.11Z"/></g></g></svg>