<svg xmlns="http://www.w3.org/2000/svg" viewBox="0 0 129.32 129.32"><defs><style>.cls-1{fill:#141515;}</style></defs><g id="Layer_2" data-name="Layer 2"><g id="Icons"><path class="cls-1" d="M64.71,33.77A30.84,30.84,0,1,0,95.54,64.61,30.88,30.88,0,0,0,64.71,33.77Zm0,56.78A25.94,25.94,0,1,1,90.65,64.61,26,26,0,0,1,64.71,90.55Z"/><path class="cls-1" d="M58,32.4H71.38A2.44,2.44,0,0,0,73.83,30a2.55,2.55,0,0,0-.16-.88L67.09,1.87A2.46,2.46,0,0,0,64.72,0h0a2.45,2.45,0,0,0-2.38,1.86L58.9,15.67,55.57,29.38a2.45,2.45,0,0,0,2.38,3Zm5.71-15.56,1-4.1,3.58,14.77H61.07Z"/><path class="cls-1" d="M71.36,96.82H58a2.43,2.43,0,0,0-1.92.93,2.49,2.49,0,0,0-.46,2.09l3.34,13.82,3.42,13.8a2.45,2.45,0,0,0,2.38,1.86h0a2.46,2.46,0,0,0,2.37-1.87l6.65-27.61a2.44,2.44,0,0,0-2.38-3Zm-6.69,19.75-3.61-14.86h7.2Z"/><path class="cls-1" d="M73.64,31.77a2.43,2.43,0,0,0,1.2,1.77L86.39,40.2a2.43,2.43,0,0,0,1.22.33,2.38,2.38,0,0,0,.91-.18A2.41,2.41,0,0,0,90,38.77l8-27.21a2.45,2.45,0,0,0-4.12-2.38L74.29,29.74A2.42,2.42,0,0,0,73.64,31.77ZM90.43,19.89,86.15,34.41,80,30.86Z"/><path class="cls-1" d="M55.68,97.55a2.47,2.47,0,0,0-1.2-1.78L42.92,89.12a2.44,2.44,0,0,0-3.56,1.43l-4,13.62-3.92,13.61a2.45,2.45,0,0,0,1.14,2.8,2.44,2.44,0,0,0,3-.45l9.69-10.27L55,99.58A2.48,2.48,0,0,0,55.68,97.55Zm-14,9-2.76,2.93,4.25-14.52,6.17,3.55Z"/><path class="cls-1" d="M89,40.79a2.48,2.48,0,0,0,.16,2.14l3.34,5.8,3.43,5.77a2.42,2.42,0,0,0,1.77,1.18l.33,0a2.46,2.46,0,0,0,1.7-.68l10.17-9.78,10.28-9.79a2.45,2.45,0,0,0-2.38-4.12l-27.22,8A2.45,2.45,0,0,0,89,40.79Zm20.47-1.9L98.52,49.35l-3.61-6.18Z"/><path class="cls-1" d="M40.35,88.53a2.44,2.44,0,0,0-.15-2.14L33.54,74.84a2.44,2.44,0,0,0-3.8-.55L9.18,93.87a2.45,2.45,0,0,0,1.69,4.22,2.35,2.35,0,0,0,.69-.1l27.21-8A2.45,2.45,0,0,0,40.35,88.53Zm-20.46,1.9L30.86,80l3.55,6.17Z"/><path class="cls-1" d="M127.44,62.23l-27.5-6.65a2.42,2.42,0,0,0-2.09.45A2.44,2.44,0,0,0,96.91,58V71.37a2.45,2.45,0,0,0,2.45,2.44,2.3,2.3,0,0,0,.58-.07l13.72-3.33L127.46,67a2.45,2.45,0,0,0,0-4.76Zm-25.63,6V61.07l14.76,3.57Z"/><path class="cls-1" d="M29.48,73.75a2.76,2.76,0,0,0,.57.06,2.47,2.47,0,0,0,1.52-.52,2.45,2.45,0,0,0,.93-1.92V58A2.45,2.45,0,0,0,31.57,56a2.49,2.49,0,0,0-2.09-.46L1.87,62.23a2.45,2.45,0,0,0,0,4.76l13.82,3.43ZM27.61,61.06v7.2l-10.77-2.6-4.1-1Z"/><path class="cls-1" d="M120,93.7l-10.09-9.61L99.69,74.3a2.45,2.45,0,0,0-2-.66,2.42,2.42,0,0,0-1.77,1.18l-3.45,5.8-3.32,5.77A2.48,2.48,0,0,0,89,88.53,2.45,2.45,0,0,0,90.54,90l27.22,8a2.35,2.35,0,0,0,.69.1h0A2.45,2.45,0,0,0,120,93.7Zm-25-7.55L98.52,80l8,7.66,3,2.8Z"/><path class="cls-1" d="M29.74,55a2.44,2.44,0,0,0,1.68.67l.35,0a2.43,2.43,0,0,0,1.77-1.2L40.2,42.93a2.44,2.44,0,0,0-1.43-3.57l-27.21-8a2.45,2.45,0,0,0-2.38,4.12Zm4.67-11.86-3.55,6.17-11-10.45Z"/><path class="cls-1" d="M90,90.55a2.45,2.45,0,0,0-3.57-1.43L74.84,95.77a2.47,2.47,0,0,0-1.2,1.78,2.42,2.42,0,0,0,.65,2l19.58,20.56a2.43,2.43,0,0,0,1.77.76h0a2.44,2.44,0,0,0,2.24-3.43ZM80,98.46l6.17-3.55,4.28,14.52Z"/><path class="cls-1" d="M35.34,25.17l4,13.6a2.42,2.42,0,0,0,1.43,1.58,2.46,2.46,0,0,0,.91.18,2.38,2.38,0,0,0,1.22-.33l11.56-6.66a2.43,2.43,0,0,0,1.2-1.77,2.48,2.48,0,0,0-.65-2L45.25,19.47,35.55,9.19a2.44,2.44,0,0,0-4.13,2.35Zm14,5.69-6.17,3.55L40,23.8l-1.12-3.91Z"/></g></g></svg>